<svg width="51" height="32" viewBox="0 0 51 32" fill="none" xmlns="http://www.w3.org/2000/svg">
<path d="M50.0661 18.2589C51.3113 17.0095 51.3113 14.9805 50.0661 13.7311L37.3155 0.93706C36.0703 -0.312354 34.0481 -0.312354 32.803 0.93706C31.5578 2.18647 31.5578 4.21552 32.803 5.46494L40.1147 12.8015L3.18765 12.8015C1.42448 12.8015 -1.87136e-06 14.2308 -1.94869e-06 16C-2.02602e-06 17.7692 1.42448 19.1985 3.18765 19.1985L40.1147 19.1985L32.803 26.5351C31.5578 27.7845 31.5578 29.8135 32.803 31.0629C34.0481 32.3124 36.0703 32.3124 37.3155 31.0629L50.0661 18.2689L50.0661 18.2589Z" fill="url(#paint0_linear_22_294)"/>
<defs>
<linearGradient id="paint0_linear_22_294" x1="3.20312e-07" y1="-5.5" x2="35.6695" y2="-16.0133" gradientUnits="userSpaceOnUse">
<stop stop-color="#1A9A27"/>
<stop offset="1" stop-color="#2AD482"/>
</linearGradient>
</defs>
</svg>
