<svg width="42" height="42" viewBox="0 0 42 42" fill="none" xmlns="http://www.w3.org/2000/svg">
<path d="M21 42C32.598 42 42 32.598 42 21C42 9.402 32.598 0 21 0C9.40199 0 -5.72205e-06 9.402 -5.72205e-06 21C-5.72205e-06 32.598 9.40199 42 21 42Z" fill="url(#paint0_linear_26_379)"/>
<path d="M21.0442 7C22.0224 7 22.8126 7.78203 22.8126 8.75V10.7023C22.9011 10.7133 22.984 10.7242 23.0724 10.7406C23.0945 10.7461 23.1111 10.7461 23.1332 10.7516L25.7858 11.2328C26.7473 11.4078 27.3829 12.3211 27.206 13.2672C27.0292 14.2133 26.1063 14.8477 25.1502 14.6727L22.5253 14.1969C20.7956 13.9453 19.2703 14.1148 18.1982 14.5359C17.1261 14.957 16.6951 15.5367 16.5956 16.0727C16.4851 16.6578 16.568 16.9859 16.6619 17.1883C16.7614 17.4016 16.9659 17.6422 17.3693 17.9102C18.2701 18.4953 19.6516 18.8781 21.4421 19.3484L21.6024 19.3922C23.1829 19.8078 25.1171 20.3109 26.5539 21.2406C27.3386 21.7492 28.0792 22.4383 28.5378 23.4008C29.0076 24.3797 29.107 25.4734 28.8915 26.6383C28.5102 28.7164 27.0623 30.1055 25.2663 30.8328C24.5092 31.1391 23.6858 31.3359 22.8126 31.4344V33.25C22.8126 34.218 22.0224 35 21.0442 35C20.0661 35 19.2758 34.218 19.2758 33.25V31.3414C19.2537 31.3359 19.2261 31.3359 19.204 31.3305H19.1929C17.8445 31.1227 15.6285 30.5484 14.1364 29.8922C13.2467 29.4984 12.8433 28.4648 13.2412 27.5844C13.6391 26.7039 14.6835 26.3047 15.5732 26.6984C16.7282 27.207 18.6293 27.7102 19.729 27.8797C21.4919 28.1367 22.9453 27.9891 23.9289 27.5898C24.8629 27.2125 25.2884 26.6656 25.41 26.0094C25.515 25.4297 25.4321 25.0961 25.3381 24.8938C25.2331 24.675 25.0287 24.4344 24.6197 24.1664C23.7134 23.5812 22.3263 23.1984 20.5303 22.7281L20.3756 22.6898C18.8006 22.2742 16.8664 21.7656 15.4296 20.8359C14.6448 20.3273 13.9098 19.6328 13.4512 18.6703C12.987 17.6914 12.893 16.5977 13.1141 15.4328C13.5119 13.3437 15.0925 11.9875 16.8885 11.282C17.6235 10.9922 18.4303 10.7953 19.2758 10.6805V8.75C19.2758 7.78203 20.0661 7 21.0442 7Z" fill="white"/>
<defs>
<linearGradient id="paint0_linear_26_379" x1="-5.71089e-06" y1="6.94215" x2="42.837" y2="7.87005" gradientUnits="userSpaceOnUse">
<stop stop-color="#1A9A27"/>
<stop offset="1" stop-color="#2AD482"/>
</linearGradient>
</defs>
</svg>
